<svg xmlns="http://www.w3.org/2000/svg" width="46" height="46" viewBox="0 0 46 46">
    <g fill="none" fill-rule="evenodd" transform="translate(1 1)">
        <circle cx="22" cy="22" r="22" stroke="#DDE5ED" stroke-width="1.1"/>
        <path fill="#00B9F5" d="M15.344 30.046h13.289a3.342 3.342 0 0 0 3.288-2.787H12.056a3.342 3.342 0 0 0 3.288 2.787M28.313 21.89c0 .606.482 1.098 1.078 1.098.595 0 1.078-.492 1.078-1.098 0-.606-.484-1.098-1.079-1.098-.596 0-1.078.492-1.078 1.098"/>
        <path fill="#002E6E" d="M12 26.702v-9.357C12 15.5 13.5 14 15.344 14h13.289c1.844 0 3.344 1.5 3.344 3.345v1.672h-2.772c-1.579 0-2.864 1.304-2.864 2.906 0 1.603 1.285 2.906 2.864 2.906h2.772v1.873c0 .191-.025.375-.056.557a3.343 3.343 0 0 1-3.288 2.787H15.344a3.341 3.341 0 0 1-3.288-2.787 3.296 3.296 0 0 1-.056-.557zm19.977-2.873h-2.772c-1.028 0-1.864-.855-1.864-1.906s.836-1.906 1.864-1.906h2.772v3.812zm-16.633 7.217h13.289a4.349 4.349 0 0 0 4.344-4.344v-9.357A4.35 4.35 0 0 0 28.633 13H15.344A4.349 4.349 0 0 0 11 17.345v9.357a4.348 4.348 0 0 0 4.344 4.344z"/>
    </g>
</svg>
